<mxfile host="Electron" modified="2024-11-22T00:33:03.907Z" agent="Mozilla/5.0 (X11; Linux x86_64) AppleWebKit/537.36 (KHTML, like Gecko) draw.io/21.6.5 Chrome/114.0.5735.243 Electron/25.3.1 Safari/537.36" etag="ueS_7R3wHP17jEA2XVIz" version="21.6.5" type="device">
  <diagram name="Page-1" id="tfA3h8iXoFlMt_qG9hfa">
    <mxGraphModel dx="576" dy="389" grid="1" gridSize="10" guides="1" tooltips="1" connect="1" arrows="1" fold="1" page="1" pageScale="1" pageWidth="827" pageHeight="1169" math="0" shadow="0">
      <root>
        <mxCell id="0" />
        <mxCell id="1" parent="0" />
        <mxCell id="CqjgiO2z4Ybz1rItWeSN-1" value="" style="rounded=1;whiteSpace=wrap;html=1;fillColor=#f5f5f5;fontColor=#333333;strokeColor=#666666;dashed=1;dashPattern=8 8;" vertex="1" parent="1">
          <mxGeometry x="140" y="140" width="360" height="170" as="geometry" />
        </mxCell>
        <mxCell id="CqjgiO2z4Ybz1rItWeSN-14" value="" style="endArrow=none;html=1;rounded=0;entryX=0;entryY=0.25;entryDx=0;entryDy=0;" edge="1" parent="1" target="CqjgiO2z4Ybz1rItWeSN-5">
          <mxGeometry width="50" height="50" relative="1" as="geometry">
            <mxPoint x="120" y="180" as="sourcePoint" />
            <mxPoint x="200" y="219.86" as="targetPoint" />
          </mxGeometry>
        </mxCell>
        <mxCell id="CqjgiO2z4Ybz1rItWeSN-12" value="" style="endArrow=none;html=1;rounded=0;entryX=1;entryY=0.5;entryDx=0;entryDy=0;" edge="1" parent="1" target="CqjgiO2z4Ybz1rItWeSN-7">
          <mxGeometry width="50" height="50" relative="1" as="geometry">
            <mxPoint x="520" y="195" as="sourcePoint" />
            <mxPoint x="330" y="220" as="targetPoint" />
          </mxGeometry>
        </mxCell>
        <mxCell id="CqjgiO2z4Ybz1rItWeSN-4" value="" style="group;fillColor=#fff2cc;strokeColor=#d6b656;" vertex="1" connectable="0" parent="1">
          <mxGeometry x="160" y="160" width="40" height="40" as="geometry" />
        </mxCell>
        <mxCell id="CqjgiO2z4Ybz1rItWeSN-2" value="" style="rounded=0;whiteSpace=wrap;html=1;fillColor=#fff2cc;strokeColor=#d6b656;" vertex="1" parent="CqjgiO2z4Ybz1rItWeSN-4">
          <mxGeometry width="40" height="40" as="geometry" />
        </mxCell>
        <mxCell id="CqjgiO2z4Ybz1rItWeSN-3" value="" style="triangle;whiteSpace=wrap;html=1;rotation=-90;fillColor=#fff2cc;strokeColor=#d6b656;" vertex="1" parent="CqjgiO2z4Ybz1rItWeSN-4">
          <mxGeometry x="15" y="25" width="10" height="20" as="geometry" />
        </mxCell>
        <mxCell id="CqjgiO2z4Ybz1rItWeSN-5" value="+" style="rounded=0;whiteSpace=wrap;html=1;" vertex="1" parent="1">
          <mxGeometry x="220" y="160" width="40" height="80" as="geometry" />
        </mxCell>
        <mxCell id="CqjgiO2z4Ybz1rItWeSN-6" value="" style="rounded=0;whiteSpace=wrap;html=1;fillColor=#CFCFCF;strokeColor=#666666;fontColor=#333333;" vertex="1" parent="1">
          <mxGeometry x="300" y="160" width="60" height="130" as="geometry" />
        </mxCell>
        <mxCell id="CqjgiO2z4Ybz1rItWeSN-7" value="" style="rounded=0;whiteSpace=wrap;html=1;fillColor=#CFCFCF;strokeColor=#666666;fontColor=#333333;" vertex="1" parent="1">
          <mxGeometry x="360" y="160" width="60" height="70" as="geometry" />
        </mxCell>
        <mxCell id="CqjgiO2z4Ybz1rItWeSN-8" value="" style="rounded=0;whiteSpace=wrap;html=1;strokeColor=none;fillColor=#CFCFCF;strokeWidth=0;fontColor=#333333;" vertex="1" parent="1">
          <mxGeometry x="329" y="160.5" width="58" height="69" as="geometry" />
        </mxCell>
        <mxCell id="CqjgiO2z4Ybz1rItWeSN-9" value="" style="group;fillColor=#fff2cc;strokeColor=#d6b656;" vertex="1" connectable="0" parent="1">
          <mxGeometry x="440" y="175" width="40" height="40" as="geometry" />
        </mxCell>
        <mxCell id="CqjgiO2z4Ybz1rItWeSN-10" value="" style="rounded=0;whiteSpace=wrap;html=1;fillColor=#fff2cc;strokeColor=#d6b656;" vertex="1" parent="CqjgiO2z4Ybz1rItWeSN-9">
          <mxGeometry width="40" height="40" as="geometry" />
        </mxCell>
        <mxCell id="CqjgiO2z4Ybz1rItWeSN-11" value="" style="triangle;whiteSpace=wrap;html=1;rotation=-90;fillColor=#fff2cc;strokeColor=#d6b656;" vertex="1" parent="CqjgiO2z4Ybz1rItWeSN-9">
          <mxGeometry x="15" y="25" width="10" height="20" as="geometry" />
        </mxCell>
        <mxCell id="CqjgiO2z4Ybz1rItWeSN-13" value="" style="endArrow=none;html=1;rounded=0;exitX=1;exitY=0.5;exitDx=0;exitDy=0;" edge="1" parent="1" source="CqjgiO2z4Ybz1rItWeSN-5">
          <mxGeometry width="50" height="50" relative="1" as="geometry">
            <mxPoint x="280" y="270" as="sourcePoint" />
            <mxPoint x="300" y="200" as="targetPoint" />
          </mxGeometry>
        </mxCell>
        <mxCell id="CqjgiO2z4Ybz1rItWeSN-15" value="" style="endArrow=none;html=1;rounded=0;entryX=0;entryY=0.25;entryDx=0;entryDy=0;" edge="1" parent="1">
          <mxGeometry width="50" height="50" relative="1" as="geometry">
            <mxPoint x="170" y="260" as="sourcePoint" />
            <mxPoint x="220" y="219.86" as="targetPoint" />
            <Array as="points">
              <mxPoint x="170" y="220" />
            </Array>
          </mxGeometry>
        </mxCell>
        <mxCell id="CqjgiO2z4Ybz1rItWeSN-16" value="" style="endArrow=none;html=1;rounded=0;entryX=0;entryY=0.25;entryDx=0;entryDy=0;" edge="1" parent="1">
          <mxGeometry width="50" height="50" relative="1" as="geometry">
            <mxPoint x="120" y="260" as="sourcePoint" />
            <mxPoint x="300" y="260" as="targetPoint" />
          </mxGeometry>
        </mxCell>
        <mxCell id="CqjgiO2z4Ybz1rItWeSN-17" value="" style="endArrow=none;html=1;rounded=0;entryX=1;entryY=0.5;entryDx=0;entryDy=0;" edge="1" parent="1">
          <mxGeometry width="50" height="50" relative="1" as="geometry">
            <mxPoint x="520" y="260" as="sourcePoint" />
            <mxPoint x="360" y="260" as="targetPoint" />
          </mxGeometry>
        </mxCell>
      </root>
    </mxGraphModel>
  </diagram>
</mxfile>
